<svg id="Layer_1" data-name="Layer 1" xmlns="http://www.w3.org/2000/svg" viewBox="0 0 200 200"><defs><style>.cls-1{fill:#a1f7d9;}.cls-2{fill:#8abeeb;}</style></defs><title>logo</title><path class="cls-1" d="M165.78,142.91S191.87,94.4,170.37,67,142.26,34,142.26,34L80,40.76,44,67.4v3.15s-14.7,33.23,0,58.77,47.77,32.34,66.14,29.4S152.55,154.12,165.78,142.91Z"/><path class="cls-2" d="M154.47,34.75S115.78,17.33,57.41,47c0,0,1-2.18-5.29,0S26.8,51.14,20,97s46.28,74.15,65.87,73.33,60.7-7.08,86.56-50.22S154.47,34.75,154.47,34.75ZM54.57,121s.54,1.91,12.79-6.26c0,0-3.54,15.52-25.86,20.14,0,0,3-18.78,14.15-29.67C55.66,105.25,52.12,118.86,54.57,121Zm63-70.5c-2.3,33.75-34.18,52.26-34.18,52.26C72.26,98.18,64.1,82.66,64.1,82.66,101.93,45.37,117.6,50.54,117.6,50.54ZM48.31,89.47s1.56-11.16,18.2-18.78C66.51,70.68,56.75,87.56,48.31,89.47Zm42.54,17.42,11.63-11.16s-1.63,15.52-13.88,24.36C88.59,120.09,91.74,109.34,90.85,106.89Zm-21.31-6.53s4.36-.54,1.91,2.72A20.34,20.34,0,0,1,60.83,111S62.46,102.26,69.54,100.35Zm92.82,19.73s-20.14,31.44-59.89,38.79S46.4,140.1,46.4,140.1c29.67-10.62,32.39-34.45,32.39-34.45s4.63,3.42,4.9,5.33-3.54,12.25-7.08,16.33S75,132.2,75,132.2c6.81-1.91,8.71-.82,23.14-14.43s11.7-32.12,11.7-32.12S136.5,44,121,42.92A50.08,50.08,0,0,0,83.42,56.53C46.95,59.8,35.79,98.18,41.5,97s19.33-9.14,19.33-9.14l3.27,5.72C41.78,100.08,35.79,127,35.79,127c-15.24-39.74,1.91-59.89,1.91-59.89,5.72,7.08,8.71,1.36,8.71,1.36a115.92,115.92,0,0,0,9.25-8.44c3.27-3.54,22.87-16.6,52-21.23s43.52,7.62,43.52,7.62,10.34,3.81,16.06,30.09S162.36,120.09,162.36,120.09Z"/><path class="cls-2" d="M81.62,76.36a8.56,8.56,0,1,0,8.56,8.56A8.56,8.56,0,0,0,81.62,76.36Zm0,11.56a3,3,0,1,1,3-3A3,3,0,0,1,81.62,87.92Z"/><path class="cls-2" d="M97.84,64.58A7.45,7.45,0,1,0,105.29,72,7.45,7.45,0,0,0,97.84,64.58Zm2,9.49a2.89,2.89,0,1,1,0-4.09A2.89,2.89,0,0,1,99.88,74.07Z"/><path class="cls-2" d="M126.59,94.19l5.9-8.6s1.2-6.2-5.4-3l-6.71,10.88s-1.58,2.22,1,5a56.78,56.78,0,0,0,7.1,6s1.9,2.2.4,4.4-4,5.6-4,5.6-1.2,6.2,5.3,3.3l6.3-10.89s.5-4.3-1.1-5.1S127.39,97,126.59,94.19Z"/><path class="cls-2" d="M143.78,87.7v30.86h5.7V87.7h7.6s3.3-3.9,0-5.4-19.89-.62-19.89-.62-2.8,3.82,0,5.51Z"/></svg>